<?xml version="1.0" encoding="UTF-8"?>
<!DOCTYPE svg PUBLIC "-//W3C//DTD SVG 1.1//EN" "http://www.w3.org/Graphics/SVG/1.1/DTD/svg11.dtd">
<svg version="1.1" xmlns="http://www.w3.org/2000/svg" xmlns:xlink="http://www.w3.org/1999/xlink" x="0px" y="0px" width="26.639" height="44.868" viewBox="0, 0, 26.639, 44.868">
  <g id="Layer 1">
    <rect id="connector1pin" x="1.162" y="44.881" fill="#8C8C8C" width="3" height="1"/>
    <rect id="connector2pin" x="6.716" y="44.881" fill="#8C8C8C" width="3" height="1"/>
    <rect id="connector3pin" x="12.001" y="44.881" fill="#8C8C8C" width="3" height="1"/>
    <rect id="connector4pin" x="17.591" y="44.881" fill="#8C8C8C" width="3" height="1"/>
    <rect id="connector5pin" x="23.182" y="44.881" fill="#8C8C8C" width="3" height="1"/>
    <path d="M12.662,33.515 L14.34,33.515 L14.34,44.881 L12.662,44.881 z" fill="#8C8C8C"/>
    <path d="M18.253,33.515 L19.93,33.515 L19.93,44.881 L18.253,44.881 z" fill="#8C8C8C"/>
    <path d="M23.843,33.515 L25.52,33.515 L25.52,44.881 L23.843,44.881 z" fill="#8C8C8C"/>
    <path d="M15.458,40.819 L14.205,41.539 L12.796,41.539 L11.544,40.819 L11.544,32.05 L15.458,32.05 z" fill="#8C8C8C"/>
    <path d="M21.048,40.819 L19.796,41.539 L18.387,41.539 L17.134,40.819 L17.134,32.05 L21.048,32.05 z" fill="#8C8C8C"/>
    <path d="M26.639,40.819 L25.386,41.539 L23.978,41.539 L22.726,40.819 L22.726,32.05 L26.639,32.05 z" fill="#8C8C8C"/>
    <path d="M7.377,33.515 L9.054,33.515 L9.054,44.881 L7.377,44.881 z" fill="#8C8C8C"/>
    <path d="M10.173,40.819 L8.92,41.539 L7.511,41.539 L6.259,40.819 L6.259,32.05 L10.173,32.05 z" fill="#8C8C8C"/>
    <path d="M1.824,33.515 L3.501,33.515 L3.501,44.881 L1.824,44.881 z" fill="#8C8C8C"/>
    <path d="M4.619,40.819 L3.367,41.539 L1.958,41.539 L0.705,40.819 L0.705,32.05 L4.619,32.05 z" fill="#8C8C8C"/>
    <path d="M24.478,0.36 L13.679,0.36 L13.679,2.161 C16.814,2.161 19.349,3.941 19.349,6.134 C19.348,8.325 16.813,10.103 13.679,10.103 L13.679,15.926 L24.478,15.926 L24.478,0.36 z" fill="#BFBCBC"/>
    <path d="M8.011,6.13 C8.011,3.936 10.547,2.16 13.679,2.16 L13.679,0.359 L2.881,0.359 L2.881,15.919 L13.679,15.919 L13.679,10.097 C10.547,10.099 8.011,8.322 8.011,6.13 z" fill="#808080"/>
    <path d="M0.361,3.258 L0.361,12.863 L2.881,12.863 L2.881,0.36 z" fill="#CCCCCC"/>
    <path d="M26.998,3.258 L24.478,0.36 L24.478,12.863 L26.998,12.863 z" fill="#999999"/>
    <path d="M18.359,22.696 L26.999,22.696 L26.999,38.696 L18.359,38.696 z" fill="#141414"/>
    <path d="M0.361,22.696 L9.001,22.696 L9.001,38.696 L0.361,38.696 z" fill="#333333"/>
    <path d="M0.361,28.555 L0.361,33.721 C2.398,33.721 4.051,32.566 4.051,31.138 C4.051,29.712 2.398,28.555 0.361,28.555 z" fill="#262626"/>
    <path d="M26.998,28.555 C24.96,28.555 23.308,29.709 23.308,31.138 C23.308,32.563 24.96,33.721 26.998,33.721 L26.998,28.555 z" fill="#000000"/>
    <path d="M0.361,22.696 L0.361,29.815 C2.398,29.815 4.051,30.972 4.051,32.399 C4.051,33.826 2.398,34.982 0.361,34.982 L0.361,38.696 L26.999,38.696 L26.999,22.696 L0.361,22.696 z M26.998,34.981 C24.96,34.981 23.308,33.826 23.308,32.398 C23.308,30.973 24.96,29.815 26.998,29.815 L26.998,34.981 z" fill="#1A1A1A"/>
    <path d="M0.361,19.348 L26.999,19.348 L26.999,22.695 L0.361,22.695 z" fill="#000000"/>
    <path d="M0.361,15.209 L26.999,15.209 L26.999,19.348 L0.361,19.348 z" fill="#333333"/>
    <path d="M2.881,0.36 L24.479,0.36 L24.479,3.42 L2.881,3.42 z" fill="#B2B2B2"/>
    <path d="M24.478,2.706 L2.881,2.706 L0.361,5.604 L0.361,15.209 L26.998,15.209 L26.998,5.604 L24.478,2.706 z M13.679,12.446 C10.547,12.446 8.011,10.669 8.011,8.477 C8.011,6.285 10.547,4.509 13.679,4.509 C16.814,4.509 19.349,6.286 19.349,8.477 C19.348,10.668 16.813,12.446 13.679,12.446 z" fill="#8C8C8C"/>
    <g>
      <path d="M8.279,24.326 L8.279,25.406 L7.739,25.406 L7.739,26.486 L7.199,26.486 L7.199,27.026 L6.119,27.026 L6.119,26.486 L5.579,26.486 L5.579,25.406 L5.039,25.406 L5.039,24.326 L6.119,24.326 L6.119,25.406 L7.199,25.406 L7.199,24.326 L8.279,24.326 z" fill="#663300"/>
      <path d="M13.679,24.866 L14.219,24.866 L14.219,25.946 L13.679,25.946 L13.679,26.486 L14.219,26.486 L14.219,27.026 L12.599,27.026 L12.599,26.486 L12.059,26.486 L12.059,27.026 L10.979,27.026 L10.979,24.326 L13.679,24.326 L13.679,24.866 L13.679,24.866 z M13.139,24.866 L12.059,24.866 L12.059,25.946 L13.139,25.946 L13.139,24.866 z" fill="#663300"/>
      <path d="M17.999,24.326 L17.999,24.866 L15.839,24.866 L15.839,25.406 L17.459,25.406 L17.459,25.946 L15.839,25.946 L15.839,26.486 L17.999,26.486 L17.999,27.026 L14.759,27.026 L14.759,24.326 L17.999,24.326 z" fill="#663300"/>
      <path d="M19.079,26.486 L18.539,26.486 L18.539,24.866 L19.079,24.866 L19.079,24.326 L21.779,24.326 L21.779,24.866 L19.619,24.866 L19.619,26.486 L20.699,26.486 L20.699,25.946 L20.159,25.946 L20.159,25.406 L21.779,25.406 L21.779,27.026 L19.079,27.026 L19.079,26.486 z" fill="#663300"/>
    </g>
  </g>
  <defs/>
</svg>
